<svg width="186" height="45" viewBox="0 0 186 45" fill="none" xmlns="http://www.w3.org/2000/svg">
<path d="M3.89095 2.15739C3.39889 1.66532 2.60111 1.66532 2.10905 2.15739C1.61698 2.64945 1.61698 3.44723 2.10905 3.93929L3.89095 2.15739ZM13.2955 14.6038C13.9914 14.6038 14.5555 14.0397 14.5555 13.3438L14.5555 2.00382C14.5555 1.30794 13.9914 0.743815 13.2955 0.743815C12.5996 0.743814 12.0355 1.30794 12.0355 2.00381L12.0355 12.0838L1.95547 12.0838C1.2596 12.0838 0.695474 12.6479 0.695475 13.3438C0.695475 14.0397 1.2596 14.6038 1.95548 14.6038L13.2955 14.6038ZM2.10905 3.93929L12.4045 14.2348L14.1864 12.4529L3.89095 2.15739L2.10905 3.93929Z" fill="black"/>
<rect x="23.5175" y="8.75029" width="27.7241" height="20.9523" rx="1.26" transform="rotate(45 23.5175 8.75029)" fill="white" stroke="black" stroke-width="2.52"/>
<path d="M23.5429 9.87122V23.5912H10.3829" stroke="black" stroke-width="2.52"/>
<path d="M87.9941 23.8636C87.9941 26.3712 87.5244 28.5189 86.585 30.3068C85.6532 32.0871 84.3805 33.4508 82.7668 34.3977C81.1608 35.3447 79.3388 35.8182 77.3009 35.8182C75.263 35.8182 73.4373 35.3447 71.8237 34.3977C70.2176 33.4432 68.9449 32.0758 68.0055 30.2955C67.0737 28.5076 66.6077 26.3636 66.6077 23.8636C66.6077 21.3561 67.0737 19.2121 68.0055 17.4318C68.9449 15.6439 70.2176 14.2765 71.8237 13.3295C73.4373 12.3826 75.263 11.9091 77.3009 11.9091C79.3388 11.9091 81.1608 12.3826 82.7668 13.3295C84.3805 14.2765 85.6532 15.6439 86.585 17.4318C87.5244 19.2121 87.9941 21.3561 87.9941 23.8636ZM83.7555 23.8636C83.7555 22.0985 83.479 20.6098 82.9259 19.3977C82.3805 18.178 81.6229 17.2576 80.6532 16.6364C79.6835 16.0076 78.5661 15.6932 77.3009 15.6932C76.0358 15.6932 74.9183 16.0076 73.9487 16.6364C72.979 17.2576 72.2176 18.178 71.6646 19.3977C71.1191 20.6098 70.8464 22.0985 70.8464 23.8636C70.8464 25.6288 71.1191 27.1212 71.6646 28.3409C72.2176 29.553 72.979 30.4735 73.9487 31.1023C74.9183 31.7235 76.0358 32.0341 77.3009 32.0341C78.5661 32.0341 79.6835 31.7235 80.6532 31.1023C81.6229 30.4735 82.3805 29.553 82.9259 28.3409C83.479 27.1212 83.7555 25.6288 83.7555 23.8636ZM102.923 28.1591V18.0455H107.037V35.5H103.048V32.3977H102.866C102.472 33.375 101.825 34.1742 100.923 34.7955C100.029 35.4167 98.9269 35.7273 97.6163 35.7273C96.4723 35.7273 95.461 35.4735 94.5822 34.9659C93.711 34.4508 93.0291 33.7045 92.5367 32.7273C92.0443 31.7424 91.7981 30.553 91.7981 29.1591V18.0455H95.9117V28.5227C95.9117 29.6288 96.2148 30.5076 96.8208 31.1591C97.4269 31.8106 98.2223 32.1364 99.2072 32.1364C99.8132 32.1364 100.4 31.9886 100.969 31.6932C101.537 31.3977 102.003 30.9583 102.366 30.375C102.737 29.7841 102.923 29.0455 102.923 28.1591ZM119.983 18.0455V21.2273H109.949V18.0455H119.983ZM112.426 13.8636H116.54V30.25C116.54 30.803 116.623 31.2273 116.79 31.5227C116.964 31.8106 117.191 32.0076 117.471 32.1136C117.752 32.2197 118.062 32.2727 118.403 32.2727C118.661 32.2727 118.896 32.2538 119.108 32.2159C119.327 32.178 119.494 32.1439 119.608 32.1136L120.301 35.3295C120.081 35.4053 119.767 35.4886 119.358 35.5795C118.956 35.6705 118.464 35.7235 117.88 35.7386C116.85 35.7689 115.922 35.6136 115.096 35.2727C114.271 34.9242 113.615 34.3864 113.13 33.6591C112.653 32.9318 112.418 32.0227 112.426 30.9318V13.8636ZM123.98 35.5V12.2273H128.196V31.9659H138.446V35.5H123.98ZM141.923 35.5V18.0455H146.037V35.5H141.923ZM143.991 15.5682C143.34 15.5682 142.779 15.3523 142.309 14.9205C141.84 14.4811 141.605 13.9545 141.605 13.3409C141.605 12.7197 141.84 12.1932 142.309 11.7614C142.779 11.322 143.34 11.1023 143.991 11.1023C144.65 11.1023 145.211 11.322 145.673 11.7614C146.143 12.1932 146.378 12.7197 146.378 13.3409C146.378 13.9545 146.143 14.4811 145.673 14.9205C145.211 15.3523 144.65 15.5682 143.991 15.5682ZM154.38 25.2727V35.5H150.267V18.0455H154.199V21.0114H154.403C154.805 20.0341 155.445 19.2576 156.324 18.6818C157.21 18.1061 158.305 17.8182 159.608 17.8182C160.812 17.8182 161.862 18.0758 162.755 18.5909C163.657 19.1061 164.354 19.8523 164.846 20.8295C165.346 21.8068 165.593 22.9924 165.585 24.3864V35.5H161.471V25.0227C161.471 23.8561 161.168 22.9432 160.562 22.2841C159.964 21.625 159.134 21.2955 158.074 21.2955C157.354 21.2955 156.714 21.4545 156.153 21.7727C155.6 22.0833 155.165 22.5341 154.846 23.125C154.536 23.7159 154.38 24.4318 154.38 25.2727ZM173.517 30.0227L173.505 25.0568H174.165L180.437 18.0455H185.244L177.528 26.6364H176.676L173.517 30.0227ZM169.767 35.5V12.2273H173.88V35.5H169.767ZM180.721 35.5L175.04 27.5568L177.812 24.6591L185.642 35.5H180.721Z" fill="black"/>
</svg>
